<svg width="1200" height="400" viewBox="0 0 1200 400" fill="none" xmlns="http://www.w3.org/2000/svg">
<rect width="1200" height="400" fill="black"/>
<path d="M782.744 148.125C778.394 148.125 774.569 147.35 771.269 145.8C767.969 144.25 765.319 142.075 763.319 139.275C761.369 136.475 760.219 133.225 759.869 129.525H764.294C764.694 132.475 765.669 135.075 767.219 137.325C768.769 139.525 770.844 141.225 773.444 142.425C776.044 143.625 779.069 144.225 782.519 144.225C787.419 144.225 791.219 143.275 793.919 141.375C796.669 139.425 798.044 136.675 798.044 133.125C798.044 130.525 797.269 128.45 795.719 126.9C794.219 125.3 792.244 124.125 789.794 123.375C787.394 122.575 784.294 121.825 780.494 121.125H780.419C776.419 120.425 773.119 119.625 770.519 118.725C767.919 117.825 765.769 116.5 764.069 114.75C762.369 112.95 761.519 110.575 761.519 107.625C761.519 104.775 762.319 102.275 763.919 100.125C765.569 97.975 767.819 96.325 770.669 95.175C773.569 93.975 776.894 93.375 780.644 93.375C784.744 93.375 788.344 94.125 791.444 95.625C794.594 97.075 797.094 99.175 798.944 101.925C800.794 104.675 801.869 107.9 802.169 111.6H797.594C797.044 107.1 795.269 103.6 792.269 101.1C789.319 98.55 785.494 97.275 780.794 97.275C777.744 97.275 775.069 97.75 772.769 98.7C770.519 99.6 768.769 100.925 767.519 102.675C766.269 104.425 765.644 106.45 765.644 108.75C765.644 111.25 766.369 113.225 767.819 114.675C769.269 116.075 771.194 117.175 773.594 117.975C775.994 118.725 779.244 119.5 783.344 120.3C783.494 120.35 783.644 120.375 783.794 120.375C783.944 120.375 784.069 120.4 784.169 120.45C784.269 120.5 784.369 120.525 784.469 120.525C784.569 120.525 784.669 120.55 784.769 120.6C788.569 121.35 791.669 122.15 794.069 123C796.469 123.85 798.444 125.175 799.994 126.975C801.594 128.725 802.394 131.125 802.394 134.175C802.394 137.025 801.594 139.5 799.994 141.6C798.394 143.7 796.119 145.325 793.169 146.475C790.219 147.575 786.744 148.125 782.744 148.125Z" fill="white"/>
<path d="M730.297 147V98.85H709.372V94.5H755.722V98.85H734.797V147H730.297Z" fill="white"/>
<path d="M678.949 148.125C673.799 148.125 669.174 146.975 665.074 144.675C660.974 142.325 657.774 139.075 655.474 134.925C653.174 130.775 652.024 126.05 652.024 120.75C652.024 115.45 653.174 110.725 655.474 106.575C657.774 102.425 660.974 99.2 665.074 96.9C669.174 94.55 673.799 93.375 678.949 93.375C683.449 93.375 687.499 94.275 691.099 96.075C694.699 97.825 697.649 100.325 699.949 103.575C702.249 106.825 703.674 110.575 704.224 114.825H699.724C699.124 111.375 697.874 108.375 695.974 105.825C694.124 103.275 691.724 101.3 688.774 99.9C685.874 98.5 682.599 97.8 678.949 97.8C674.599 97.8 670.724 98.775 667.324 100.725C663.974 102.625 661.349 105.325 659.449 108.825C657.549 112.325 656.599 116.3 656.599 120.75C656.599 125.2 657.549 129.175 659.449 132.675C661.349 136.125 663.974 138.825 667.324 140.775C670.724 142.725 674.599 143.7 678.949 143.7C682.599 143.7 685.874 143 688.774 141.6C691.724 140.2 694.124 138.225 695.974 135.675C697.874 133.125 699.124 130.125 699.724 126.675H704.224C703.674 130.925 702.249 134.675 699.949 137.925C697.649 141.175 694.699 143.7 691.099 145.5C687.499 147.25 683.449 148.125 678.949 148.125Z" fill="white"/>
<path d="M612.805 147V94.5H642.955V98.55H617.23V120H636.13V121.5H617.23V142.95H646.255V147H612.805Z" fill="white"/>
<path d="M577.042 148.125C573.392 148.125 570.167 147.325 567.367 145.725C564.567 144.125 562.392 141.875 560.842 138.975C559.292 136.075 558.517 132.7 558.517 128.85V125.55H562.942V128.7C562.942 131.7 563.517 134.35 564.667 136.65C565.867 138.9 567.517 140.65 569.617 141.9C571.767 143.1 574.217 143.7 576.967 143.7C581.067 143.7 584.317 142.35 586.717 139.65C589.167 136.9 590.392 133.25 590.392 128.7V94.5H594.892V128.85C594.892 132.7 594.142 136.075 592.642 138.975C591.192 141.875 589.117 144.125 586.417 145.725C583.717 147.325 580.592 148.125 577.042 148.125Z" fill="white"/>
<path d="M523.9 148.125C518.8 148.125 514.175 146.95 510.025 144.6C505.875 142.2 502.625 138.925 500.275 134.775C497.925 130.575 496.75 125.9 496.75 120.75C496.75 115.6 497.925 110.95 500.275 106.8C502.625 102.6 505.875 99.325 510.025 96.975C514.175 94.575 518.8 93.375 523.9 93.375C529 93.375 533.625 94.575 537.775 96.975C541.925 99.325 545.175 102.6 547.525 106.8C549.875 110.95 551.05 115.6 551.05 120.75C551.05 125.9 549.875 130.575 547.525 134.775C545.175 138.925 541.925 142.2 537.775 144.6C533.625 146.95 529 148.125 523.9 148.125ZM523.9 143.7C528.15 143.7 532 142.7 535.45 140.7C538.9 138.7 541.6 135.975 543.55 132.525C545.5 129.025 546.475 125.1 546.475 120.75C546.475 116.4 545.5 112.5 543.55 109.05C541.6 105.55 538.9 102.8 535.45 100.8C532 98.8 528.15 97.8 523.9 97.8C519.65 97.8 515.8 98.8 512.35 100.8C508.95 102.8 506.25 105.55 504.25 109.05C502.3 112.5 501.325 116.4 501.325 120.75C501.325 125.1 502.3 129.025 504.25 132.525C506.25 135.975 508.95 138.7 512.35 140.7C515.8 142.7 519.65 143.7 523.9 143.7Z" fill="white"/>
<path d="M450.793 147V94.5H466.093C472.193 94.5 476.993 95.85 480.493 98.55C483.993 101.2 485.743 104.85 485.743 109.5C485.743 113.4 484.518 116.625 482.068 119.175C479.618 121.675 476.193 123.275 471.793 123.975L490.693 147H485.443L466.843 124.425C466.543 124.475 466.218 124.5 465.868 124.5C465.568 124.5 465.268 124.5 464.968 124.5H455.218V147H450.793ZM465.718 123C470.568 123 474.368 121.925 477.118 119.775C479.868 117.575 481.243 114.575 481.243 110.775C481.243 106.975 479.868 104 477.118 101.85C474.368 99.65 470.568 98.55 465.718 98.55H455.218V123H465.718Z" fill="white"/>
<path d="M402.6 147V94.5H417.9C424 94.5 428.8 95.85 432.3 98.55C435.8 101.2 437.55 104.85 437.55 109.5C437.55 114.15 435.825 117.825 432.375 120.525C428.975 123.175 424.3 124.5 418.35 124.5H407.1V147H402.6ZM417.525 123C422.375 123 426.175 121.925 428.925 119.775C431.675 117.575 433.05 114.575 433.05 110.775C433.05 106.975 431.675 104 428.925 101.85C426.175 99.65 422.375 98.55 417.525 98.55H407.1V123H417.525Z" fill="white"/>
<path d="M488.639 316V274.912H470.783V271.2H510.335V274.912H492.479V316H488.639Z" fill="white"/>
<path d="M443.677 316.96C439.837 316.96 436.467 316.128 433.565 314.464C430.664 312.8 428.424 310.475 426.845 307.488C425.267 304.459 424.477 300.917 424.477 296.864V271.2H428.317V296.672C428.317 300.043 428.936 302.987 430.173 305.504C431.411 307.979 433.181 309.899 435.485 311.264C437.789 312.587 440.52 313.248 443.677 313.248C446.792 313.248 449.501 312.587 451.805 311.264C454.109 309.899 455.88 307.979 457.117 305.504C458.355 302.987 458.973 300.043 458.973 296.672V271.2H462.813V296.864C462.813 300.917 462.024 304.459 460.445 307.488C458.867 310.475 456.627 312.8 453.725 314.464C450.867 316.128 447.517 316.96 443.677 316.96Z" fill="white"/>
<path d="M390.202 316.96C385.85 316.96 381.903 315.957 378.362 313.952C374.82 311.904 372.047 309.109 370.042 305.568C368.036 301.984 367.034 297.995 367.034 293.6C367.034 289.205 368.036 285.237 370.042 281.696C372.047 278.112 374.82 275.317 378.362 273.312C381.903 271.264 385.85 270.24 390.202 270.24C394.554 270.24 398.5 271.264 402.042 273.312C405.583 275.317 408.356 278.112 410.362 281.696C412.367 285.237 413.37 289.205 413.37 293.6C413.37 297.995 412.367 301.984 410.362 305.568C408.356 309.109 405.583 311.904 402.042 313.952C398.5 315.957 394.554 316.96 390.202 316.96ZM390.202 313.184C393.828 313.184 397.114 312.331 400.058 310.624C403.002 308.917 405.306 306.592 406.97 303.648C408.634 300.661 409.466 297.312 409.466 293.6C409.466 289.888 408.634 286.56 406.97 283.616C405.306 280.629 403.002 278.283 400.058 276.576C397.114 274.869 393.828 274.016 390.202 274.016C386.575 274.016 383.29 274.869 380.346 276.576C377.444 278.283 375.14 280.629 373.434 283.616C371.77 286.56 370.938 289.888 370.938 293.6C370.938 297.312 371.77 300.661 373.434 303.648C375.14 306.592 377.444 308.917 380.346 310.624C383.29 312.331 386.575 313.184 390.202 313.184Z" fill="white"/>
<path d="M325.942 316V271.2H342.966C347.531 271.2 351.094 272.224 353.654 274.272C356.257 276.32 357.558 279.136 357.558 282.72C357.558 285.365 356.811 287.605 355.318 289.44C353.867 291.232 351.755 292.512 348.982 293.28V293.536C352.267 294.133 354.806 295.392 356.598 297.312C358.39 299.232 359.286 301.621 359.286 304.48C359.286 306.827 358.689 308.875 357.494 310.624C356.342 312.373 354.678 313.717 352.502 314.656C350.326 315.552 347.766 316 344.822 316H325.942ZM343.798 312.352C347.382 312.352 350.198 311.541 352.246 309.92C354.294 308.299 355.318 306.08 355.318 303.264C355.318 300.448 354.273 298.251 352.182 296.672C350.134 295.051 347.339 294.24 343.798 294.24H329.782V312.352H343.798ZM342.198 292.96C345.825 292.96 348.662 292.149 350.71 290.528C352.758 288.907 353.782 286.688 353.782 283.872C353.782 281.099 352.758 278.901 350.71 277.28C348.662 275.659 345.825 274.848 342.198 274.848H329.782V292.96H342.198Z" fill="white"/>
<path d="M274.274 316L293.026 271.2H298.018L316.706 316H312.61L306.722 301.792H284.258L278.242 316H274.274ZM284.706 300.576H306.21L295.522 275.168L284.706 300.576Z" fill="white"/>
<path d="M952.045 318V276.912H934.189V273.2H973.741V276.912H955.885V318H952.045Z" fill="white"/>
<path d="M908.228 318.96C903.834 318.96 899.887 317.979 896.388 316.016C892.89 314.011 890.159 311.237 888.196 307.696C886.234 304.155 885.252 300.123 885.252 295.6C885.252 291.077 886.234 287.045 888.196 283.504C890.159 279.963 892.89 277.211 896.388 275.248C899.887 273.243 903.834 272.24 908.228 272.24C912.068 272.24 915.524 273.008 918.596 274.544C921.668 276.037 924.186 278.171 926.148 280.944C928.111 283.717 929.327 286.917 929.796 290.544H925.956C925.444 287.6 924.378 285.04 922.756 282.864C921.178 280.688 919.13 279.003 916.612 277.808C914.138 276.613 911.343 276.016 908.228 276.016C904.516 276.016 901.21 276.848 898.308 278.512C895.45 280.133 893.21 282.437 891.588 285.424C889.967 288.411 889.156 291.803 889.156 295.6C889.156 299.397 889.967 302.789 891.588 305.776C893.21 308.72 895.45 311.024 898.308 312.688C901.21 314.352 904.516 315.184 908.228 315.184C911.343 315.184 914.138 314.587 916.612 313.392C919.13 312.197 921.178 310.512 922.756 308.336C924.378 306.16 925.444 303.6 925.956 300.656H929.796C929.327 304.283 928.111 307.483 926.148 310.256C924.186 313.029 921.668 315.184 918.596 316.72C915.524 318.213 912.068 318.96 908.228 318.96Z" fill="white"/>
<path d="M838.18 318L856.932 273.2H861.924L880.612 318H876.516L870.628 303.792H848.164L842.148 318H838.18ZM848.612 302.576H870.116L859.428 277.168L848.612 302.576Z" fill="white"/>
<path d="M817.483 318V276.912H799.627V273.2H839.179V276.912H821.323V318H817.483Z" fill="white"/>
<path d="M752.661 318V273.2H756.693L786.197 315.824V273.2H790.037V318H786.069L756.501 275.376V318H752.661Z" fill="white"/>
<path d="M717.483 318.96C713.131 318.96 709.184 317.957 705.643 315.952C702.101 313.904 699.328 311.109 697.323 307.568C695.317 303.984 694.315 299.995 694.315 295.6C694.315 291.205 695.317 287.237 697.323 283.696C699.328 280.112 702.101 277.317 705.643 275.312C709.184 273.264 713.131 272.24 717.483 272.24C721.835 272.24 725.781 273.264 729.323 275.312C732.864 277.317 735.637 280.112 737.643 283.696C739.648 287.237 740.651 291.205 740.651 295.6C740.651 299.995 739.648 303.984 737.643 307.568C735.637 311.109 732.864 313.904 729.323 315.952C725.781 317.957 721.835 318.96 717.483 318.96ZM717.483 315.184C721.109 315.184 724.395 314.331 727.339 312.624C730.283 310.917 732.587 308.592 734.251 305.648C735.915 302.661 736.747 299.312 736.747 295.6C736.747 291.888 735.915 288.56 734.251 285.616C732.587 282.629 730.283 280.283 727.339 278.576C724.395 276.869 721.109 276.016 717.483 276.016C713.856 276.016 710.571 276.869 707.627 278.576C704.725 280.283 702.421 282.629 700.715 285.616C699.051 288.56 698.219 291.888 698.219 295.6C698.219 299.312 699.051 302.661 700.715 305.648C702.421 308.592 704.725 310.917 707.627 312.624C710.571 314.331 713.856 315.184 717.483 315.184Z" fill="white"/>
<path d="M664.916 318.96C660.521 318.96 656.574 317.979 653.076 316.016C649.577 314.011 646.846 311.237 644.884 307.696C642.921 304.155 641.94 300.123 641.94 295.6C641.94 291.077 642.921 287.045 644.884 283.504C646.846 279.963 649.577 277.211 653.076 275.248C656.574 273.243 660.521 272.24 664.916 272.24C668.756 272.24 672.212 273.008 675.284 274.544C678.356 276.037 680.873 278.171 682.836 280.944C684.798 283.717 686.014 286.917 686.484 290.544H682.644C682.132 287.6 681.065 285.04 679.444 282.864C677.865 280.688 675.817 279.003 673.3 277.808C670.825 276.613 668.03 276.016 664.916 276.016C661.204 276.016 657.897 276.848 654.996 278.512C652.137 280.133 649.897 282.437 648.276 285.424C646.654 288.411 645.844 291.803 645.844 295.6C645.844 299.397 646.654 302.789 648.276 305.776C649.897 308.72 652.137 311.024 654.996 312.688C657.897 314.352 661.204 315.184 664.916 315.184C668.03 315.184 670.825 314.587 673.3 313.392C675.817 312.197 677.865 310.512 679.444 308.336C681.065 306.16 682.132 303.6 682.644 300.656H686.484C686.014 304.283 684.798 307.483 682.836 310.256C680.873 313.029 678.356 315.184 675.284 316.72C672.212 318.213 668.756 318.96 664.916 318.96Z" fill="white"/>
<path d="M1023 211L1023 212L176 214L175.998 213L1023 211Z" fill="white"/>
</svg>
